<mxfile host="app.diagrams.net" agent="Mozilla/5.0 (Windows NT 10.0; Win64; x64) AppleWebKit/537.36 (KHTML, like Gecko) Chrome/131.0.0.0 Safari/537.36" version="26.0.3">
  <diagram name="Страница — 1" id="g6kWkiL7P6KqW5Gz1cMJ">
    <mxGraphModel dx="2901" dy="1140" grid="1" gridSize="10" guides="1" tooltips="1" connect="1" arrows="1" fold="1" page="1" pageScale="1" pageWidth="827" pageHeight="1169" math="0" shadow="0">
      <root>
        <mxCell id="0" />
        <mxCell id="1" parent="0" />
        <mxCell id="Taoq1hJznOXqGuNt0yYD-1" value="Class_animals" style="swimlane;whiteSpace=wrap;html=1;" vertex="1" parent="1">
          <mxGeometry x="280" y="240" width="200" height="80" as="geometry" />
        </mxCell>
        <mxCell id="Taoq1hJznOXqGuNt0yYD-4" style="edgeStyle=orthogonalEdgeStyle;rounded=0;orthogonalLoop=1;jettySize=auto;html=1;entryX=0.5;entryY=1;entryDx=0;entryDy=0;" edge="1" parent="1" source="Taoq1hJznOXqGuNt0yYD-2" target="Taoq1hJznOXqGuNt0yYD-1">
          <mxGeometry relative="1" as="geometry" />
        </mxCell>
        <mxCell id="Taoq1hJznOXqGuNt0yYD-2" value="Class_homeAnimals" style="swimlane;whiteSpace=wrap;html=1;" vertex="1" parent="1">
          <mxGeometry x="80" y="400" width="200" height="80" as="geometry" />
        </mxCell>
        <mxCell id="Taoq1hJznOXqGuNt0yYD-5" style="edgeStyle=orthogonalEdgeStyle;rounded=0;orthogonalLoop=1;jettySize=auto;html=1;" edge="1" parent="1" source="Taoq1hJznOXqGuNt0yYD-3">
          <mxGeometry relative="1" as="geometry">
            <mxPoint x="380" y="320" as="targetPoint" />
            <Array as="points">
              <mxPoint x="580" y="360" />
              <mxPoint x="381" y="360" />
            </Array>
          </mxGeometry>
        </mxCell>
        <mxCell id="Taoq1hJznOXqGuNt0yYD-3" value="Class_packAnimals" style="swimlane;whiteSpace=wrap;html=1;" vertex="1" parent="1">
          <mxGeometry x="480" y="400" width="200" height="80" as="geometry" />
        </mxCell>
        <mxCell id="Taoq1hJznOXqGuNt0yYD-9" style="edgeStyle=orthogonalEdgeStyle;rounded=0;orthogonalLoop=1;jettySize=auto;html=1;entryX=0.5;entryY=1;entryDx=0;entryDy=0;" edge="1" parent="1" source="Taoq1hJznOXqGuNt0yYD-6" target="Taoq1hJznOXqGuNt0yYD-2">
          <mxGeometry relative="1" as="geometry">
            <Array as="points">
              <mxPoint x="-130" y="560" />
              <mxPoint x="180" y="560" />
            </Array>
          </mxGeometry>
        </mxCell>
        <mxCell id="Taoq1hJznOXqGuNt0yYD-6" value="Class_dog" style="swimlane;whiteSpace=wrap;html=1;" vertex="1" parent="1">
          <mxGeometry x="-200" y="600" width="120" height="80" as="geometry" />
        </mxCell>
        <mxCell id="Taoq1hJznOXqGuNt0yYD-10" style="edgeStyle=orthogonalEdgeStyle;rounded=0;orthogonalLoop=1;jettySize=auto;html=1;" edge="1" parent="1" source="Taoq1hJznOXqGuNt0yYD-7">
          <mxGeometry relative="1" as="geometry">
            <mxPoint x="180" y="480" as="targetPoint" />
            <Array as="points">
              <mxPoint x="60" y="560" />
              <mxPoint x="181" y="560" />
            </Array>
          </mxGeometry>
        </mxCell>
        <mxCell id="Taoq1hJznOXqGuNt0yYD-7" value="Class_cat" style="swimlane;whiteSpace=wrap;html=1;" vertex="1" parent="1">
          <mxGeometry y="600" width="120" height="80" as="geometry" />
        </mxCell>
        <mxCell id="Taoq1hJznOXqGuNt0yYD-11" style="edgeStyle=orthogonalEdgeStyle;rounded=0;orthogonalLoop=1;jettySize=auto;html=1;entryX=0.5;entryY=1;entryDx=0;entryDy=0;" edge="1" parent="1" source="Taoq1hJznOXqGuNt0yYD-8" target="Taoq1hJznOXqGuNt0yYD-2">
          <mxGeometry relative="1" as="geometry">
            <Array as="points">
              <mxPoint x="250" y="560" />
              <mxPoint x="180" y="560" />
            </Array>
          </mxGeometry>
        </mxCell>
        <mxCell id="Taoq1hJznOXqGuNt0yYD-8" value="Class_hamster" style="swimlane;whiteSpace=wrap;html=1;" vertex="1" parent="1">
          <mxGeometry x="200" y="600" width="120" height="80" as="geometry" />
        </mxCell>
        <mxCell id="Taoq1hJznOXqGuNt0yYD-15" style="edgeStyle=orthogonalEdgeStyle;rounded=0;orthogonalLoop=1;jettySize=auto;html=1;entryX=0.5;entryY=1;entryDx=0;entryDy=0;" edge="1" parent="1" source="Taoq1hJznOXqGuNt0yYD-12" target="Taoq1hJznOXqGuNt0yYD-3">
          <mxGeometry relative="1" as="geometry" />
        </mxCell>
        <mxCell id="Taoq1hJznOXqGuNt0yYD-12" value="Class_horse" style="swimlane;whiteSpace=wrap;html=1;" vertex="1" parent="1">
          <mxGeometry x="440" y="600" width="120" height="80" as="geometry" />
        </mxCell>
        <mxCell id="Taoq1hJznOXqGuNt0yYD-16" style="edgeStyle=orthogonalEdgeStyle;rounded=0;orthogonalLoop=1;jettySize=auto;html=1;" edge="1" parent="1" source="Taoq1hJznOXqGuNt0yYD-13">
          <mxGeometry relative="1" as="geometry">
            <mxPoint x="580" y="480" as="targetPoint" />
            <Array as="points">
              <mxPoint x="700" y="540" />
              <mxPoint x="581" y="540" />
            </Array>
          </mxGeometry>
        </mxCell>
        <mxCell id="Taoq1hJznOXqGuNt0yYD-13" value="Class_camel" style="swimlane;whiteSpace=wrap;html=1;" vertex="1" parent="1">
          <mxGeometry x="640" y="600" width="120" height="80" as="geometry" />
        </mxCell>
        <mxCell id="Taoq1hJznOXqGuNt0yYD-17" style="edgeStyle=orthogonalEdgeStyle;rounded=0;orthogonalLoop=1;jettySize=auto;html=1;entryX=0.5;entryY=1;entryDx=0;entryDy=0;" edge="1" parent="1" source="Taoq1hJznOXqGuNt0yYD-14" target="Taoq1hJznOXqGuNt0yYD-3">
          <mxGeometry relative="1" as="geometry">
            <Array as="points">
              <mxPoint x="900" y="540" />
              <mxPoint x="580" y="540" />
            </Array>
          </mxGeometry>
        </mxCell>
        <mxCell id="Taoq1hJznOXqGuNt0yYD-14" value="Class_donkey" style="swimlane;whiteSpace=wrap;html=1;" vertex="1" parent="1">
          <mxGeometry x="840" y="600" width="120" height="80" as="geometry" />
        </mxCell>
        <mxCell id="Taoq1hJznOXqGuNt0yYD-18" value="Extends" style="text;html=1;align=center;verticalAlign=middle;whiteSpace=wrap;rounded=0;" vertex="1" parent="1">
          <mxGeometry x="-100" y="540" width="60" height="20" as="geometry" />
        </mxCell>
        <mxCell id="Taoq1hJznOXqGuNt0yYD-19" value="Extends" style="text;html=1;align=center;verticalAlign=middle;whiteSpace=wrap;rounded=0;" vertex="1" parent="1">
          <mxGeometry x="190" y="540" width="60" height="20" as="geometry" />
        </mxCell>
        <mxCell id="Taoq1hJznOXqGuNt0yYD-20" value="Extends" style="text;html=1;align=center;verticalAlign=middle;whiteSpace=wrap;rounded=0;" vertex="1" parent="1">
          <mxGeometry x="110" y="540" width="60" height="20" as="geometry" />
        </mxCell>
        <mxCell id="Taoq1hJznOXqGuNt0yYD-21" value="Extends" style="text;html=1;align=center;verticalAlign=middle;whiteSpace=wrap;rounded=0;" vertex="1" parent="1">
          <mxGeometry x="500" y="520" width="60" height="20" as="geometry" />
        </mxCell>
        <mxCell id="Taoq1hJznOXqGuNt0yYD-22" value="Extends" style="text;html=1;align=center;verticalAlign=middle;whiteSpace=wrap;rounded=0;" vertex="1" parent="1">
          <mxGeometry x="600" y="520" width="60" height="20" as="geometry" />
        </mxCell>
        <mxCell id="Taoq1hJznOXqGuNt0yYD-23" value="Extends" style="text;html=1;align=center;verticalAlign=middle;whiteSpace=wrap;rounded=0;" vertex="1" parent="1">
          <mxGeometry x="820" y="520" width="60" height="20" as="geometry" />
        </mxCell>
        <mxCell id="Taoq1hJznOXqGuNt0yYD-24" value="Extends" style="text;html=1;align=center;verticalAlign=middle;whiteSpace=wrap;rounded=0;" vertex="1" parent="1">
          <mxGeometry x="310" y="340" width="60" height="20" as="geometry" />
        </mxCell>
        <mxCell id="Taoq1hJznOXqGuNt0yYD-25" value="Extends" style="text;html=1;align=center;verticalAlign=middle;whiteSpace=wrap;rounded=0;" vertex="1" parent="1">
          <mxGeometry x="390" y="340" width="60" height="20" as="geometry" />
        </mxCell>
      </root>
    </mxGraphModel>
  </diagram>
</mxfile>
